<svg width="23" height="22" viewBox="0 0 23 22" fill="none" xmlns="http://www.w3.org/2000/svg">
<g id="044-instagram" clip-path="url(#clip0_1_239)">
<path id="Vector" d="M11.4878 5.35144C8.36553 5.35144 5.83783 7.87961 5.83783 10.9963C5.83783 14.1157 8.36828 16.6411 11.4878 16.6411C14.61 16.6411 17.1377 14.1129 17.1377 10.9963C17.1377 7.87686 14.6073 5.35144 11.4878 5.35144V5.35144ZM11.4878 14.6602C9.46102 14.6602 7.82054 13.0203 7.82054 10.9963C7.82054 8.97228 9.46194 7.33236 11.4878 7.33236C13.5136 7.33236 15.155 8.97228 15.155 10.9963C15.1559 13.0203 13.5145 14.6602 11.4878 14.6602V14.6602Z" fill="white"/>
<path id="Vector_2" d="M16.0224 0.0709355C13.9966 -0.0234812 8.97879 -0.0188978 6.95112 0.0709355C5.16934 0.154352 3.59767 0.584269 2.33061 1.85019C0.21303 3.96585 0.483692 6.81669 0.483692 10.9976C0.483692 15.2766 0.245143 18.0614 2.33061 20.145C4.45645 22.268 7.35115 21.9903 11.4863 21.9903C15.7288 21.9903 17.1931 21.993 18.6932 21.4128C20.7328 20.6217 22.2724 18.8003 22.4229 15.5287C22.5183 13.5038 22.5128 8.49144 22.4229 6.4656C22.2412 2.60369 20.1667 0.261602 16.0224 0.0709355V0.0709355ZM19.2291 18.7453C17.8409 20.1322 15.9151 20.0084 11.4597 20.0084C6.87222 20.0084 5.03264 20.0763 3.69034 18.7315C2.14436 17.1943 2.4242 14.7257 2.4242 10.9829C2.4242 5.91835 1.90398 2.27094 6.99149 2.0106C8.16038 1.96935 8.50444 1.9556 11.4469 1.9556L11.4881 1.9831C16.3775 1.9831 20.2135 1.4716 20.4438 6.5536C20.4961 7.71319 20.508 8.06152 20.508 10.9967C20.5071 15.5269 20.5934 17.3758 19.2291 18.7453V18.7453Z" fill="white"/>
<path id="Vector_3" d="M17.3608 6.44786C18.0901 6.44786 18.6813 5.85729 18.6813 5.12878C18.6813 4.40027 18.0901 3.80969 17.3608 3.80969C16.6315 3.80969 16.0403 4.40027 16.0403 5.12878C16.0403 5.85729 16.6315 6.44786 17.3608 6.44786Z" fill="white"/>
</g>
<defs>
<clipPath id="clip0_1_239">
<rect width="22.0199" height="22" fill="white" transform="translate(0.473145)"/>
</clipPath>
</defs>
</svg>
