<svg width="23" height="22" viewBox="0 0 23 22" fill="none" xmlns="http://www.w3.org/2000/svg">
<g id="116-youtube" clip-path="url(#clip0_1_237)">
<path id="Vector" d="M22.5128 5.43497L22.5404 5.61464C22.2743 4.67139 21.5559 3.94355 20.643 3.67864L20.6237 3.67405C18.9071 3.20839 11.9993 3.20839 11.9993 3.20839C11.9993 3.20839 5.10886 3.19922 3.37479 3.67405C2.44445 3.94355 1.72514 4.67139 1.46365 5.59539L1.45906 5.61464C0.817732 8.96139 0.813144 12.9828 1.4875 16.5661L1.45906 16.3846C1.72514 17.3278 2.44353 18.0556 3.35644 18.3206L3.37571 18.3251C5.09051 18.7917 12.0002 18.7917 12.0002 18.7917C12.0002 18.7917 18.8897 18.7917 20.6246 18.3251C21.5559 18.0556 22.2752 17.3278 22.5367 16.4038L22.5413 16.3846C22.833 14.8281 23 13.0369 23 11.2072C23 11.1403 23 11.0725 22.9991 11.0046C23 10.9423 23 10.8681 23 10.7938C23 8.96322 22.833 7.17205 22.5128 5.43497V5.43497ZM9.79543 14.3468V7.66155L15.5445 11.0092L9.79543 14.3468Z" fill="white"/>
</g>
<defs>
<clipPath id="clip0_1_237">
<rect width="22.0199" height="22" fill="white" transform="translate(0.980103)"/>
</clipPath>
</defs>
</svg>
